<?xml version="1.0" encoding="utf-8"?>
<!-- Generator: Adobe Illustrator 24.0.1, SVG Export Plug-In . SVG Version: 6.00 Build 0)  -->
<svg version="1.1" id="Layer_1" xmlns="http://www.w3.org/2000/svg" xmlns:xlink="http://www.w3.org/1999/xlink" x="0px" y="0px"
	 viewBox="0 0 100 100" style="enable-background:new 0 0 100 100;" xml:space="preserve">
<style type="text/css">
	.st0{fill:#DC2597;}
</style>
<path class="st0" d="M26.5,55.1c0.1,0,0.2,0.1,0.3,0.1c2.2,0.7,4.5,1,6.7,1c3.6,0,7.2-0.9,10.5-2.6l0,0c1.7-0.9,3.3-2,4.8-3.4
	L87.6,89c0.2,0.2,0.5,0.3,0.7,0.3s0.5-0.1,0.7-0.3c0.4-0.4,0.4-1,0-1.4L50.2,48.8c2.3-2.5,3.9-5.3,4.9-8.3c0.1-0.1,0.1-0.2,0.1-0.3
	c2.4-7.8,0.5-16.7-5.6-22.8c-2.6-2.6-5.8-4.5-9.1-5.5c-0.1-0.1-0.2-0.1-0.3-0.1c-7.8-2.4-16.6-0.5-22.8,5.6
	c-4.3,4.3-6.7,10-6.7,16.1s2.4,11.8,6.7,16.1C20,52.2,23.2,54,26.5,55.1z M16.8,45.8c2.2,0.8,4.1,1.1,5.8,1.1c4.1,0,6.8-1.9,8.3-3.4
	c2.3-2.3,3.5-5.3,3.8-7.6c1,1.4,2.1,3.8,2.1,6.6c0,3.5-1.6,8.1-9.7,10.7c-3-1-5.8-2.6-8.2-5C18.1,47.4,17.4,46.6,16.8,45.8z
	 M48,48.3c-0.7,0.7-1.4,1.3-2.2,1.8c2.8-7.4-0.1-11.9-2.3-14c-2.3-2.3-5.3-3.5-7.6-3.8c1.4-1,3.8-2.1,6.6-2.1
	c3.5,0,8.1,1.6,10.7,9.7c-1,2.9-2.6,5.7-4.9,8c-0.1,0-0.1,0.1-0.2,0.1C48.1,48.2,48,48.2,48,48.3z M18.8,18.8c0.7-0.7,1.5-1.4,2.3-2
	c-2.8,7.4,0.1,11.9,2.3,14c2.3,2.3,5.3,3.5,7.6,3.8c-1.4,1-3.8,2.1-6.6,2.1c-3.5,0-8.1-1.6-10.7-9.8C14.8,23.9,16.5,21.1,18.8,18.8z
	 M50.1,21.1c-7.4-2.8-11.9,0.1-14,2.3c-2.3,2.3-3.5,5.3-3.8,7.6c-1-1.4-2.1-3.8-2.1-6.6c0-3.5,1.6-8.1,9.7-10.7c3,1,5.8,2.6,8.2,5
	C48.9,19.5,49.5,20.3,50.1,21.1z"/>
</svg>
